<?xml version="1.0" encoding="utf-8"?>
<!-- Generator: Adobe Illustrator 18.0.0, SVG Export Plug-In . SVG Version: 6.00 Build 0)  -->
<!DOCTYPE svg PUBLIC "-//W3C//DTD SVG 1.1//EN" "http://www.w3.org/Graphics/SVG/1.1/DTD/svg11.dtd">
<svg version="1.1" id="Layer_1" xmlns="http://www.w3.org/2000/svg" xmlns:xlink="http://www.w3.org/1999/xlink" x="0px" y="0px"
	 width="50px" height="50px" viewBox="0 0 50 50" enable-background="new 0 0 50 50" xml:space="preserve">
<g>
	<g>
		<g>
			<path fill="#010101" d="M35.7,16.3l0.7-0.7h1.9l1-0.9l-3.8-3.8l-1,0.9v1.9l-0.7,0.7c-2-1.3-4.2-2.2-6.7-2.6v-1
				c0.5,0,1.9-1.3,1.9-1.9s-0.4-1-1-1h-5.8c-0.5,0-1,0.4-1,1c0,0.5,1.3,1.9,1.9,1.9v1c-7.5,1-13.2,7.2-13.2,15
				c0,8.3,6.8,15.1,15.1,15.1c8.3,0,15.1-6.8,15.1-15.1C40,22.8,38.3,19.1,35.7,16.3z M25,40.1c-7.5,0-13.2-5.6-13.2-13.2
				c0-7.6,5.6-13.2,13.2-13.2c7.6,0,13.1,5.8,13.1,13.3C38.1,34.6,32.6,40.1,25,40.1z"/>
		</g>
		<g>
			<g>
				<g>
					<g>
						<g>
							<g>
								<g>
									<g>
										<g>
											<g>
												<defs>
													<polygon id="SVGID_1_" points="25,27 25,14.9 37.1,14.9 37.1,38.5 12.8,38.5 12.8,27 													"/>
												</defs>
												<clipPath id="SVGID_2_">
													<use xlink:href="#SVGID_1_"  overflow="visible"/>
												</clipPath>
												<path clip-path="url(#SVGID_2_)" fill="#A3C3CC" d="M25,20.4c3.7,0,6.6,2.9,6.6,6.6c0,3.7-2.9,6.6-6.6,6.6
													s-6.6-2.9-6.6-6.6C18.4,23.3,21.4,20.4,25,20.4z M25,15.7c6.2,0,11.3,5.1,11.3,11.3S31.3,38.3,25,38.3
													S13.7,33.2,13.7,27C13.8,20.8,18.7,15.7,25,15.7z"/>
											</g>
										</g>
									</g>
								</g>
							</g>
						</g>
					</g>
				</g>
			</g>
		</g>
		<path fill="none" d="M25,11.9c8.3,0,15.1,6.8,15.1,15.1C40.1,35.2,33.3,42,25,42S10,35.2,10,26.9C10,18.7,16.7,11.9,25,11.9z"/>
		<path fill="none" d="M25,13.8c7.5,0,13.2,5.6,13.2,13.2c0,7.6-5.6,13.2-13.2,13.2c-7.7,0-13.2-5.6-13.2-13.2
			C11.9,19.4,17.4,13.8,25,13.8z"/>
		<path fill="none" d="M26.9,11c0.5,0,1.9-1.3,1.9-1.9l0,0c0-0.5-0.4-0.9-1-0.9H22c-0.5,0-1,0.4-1,0.9l0,0c0,0.5,1.3,1.9,1.9,1.9
			v1.9h3.8L26.9,11L26.9,11z"/>
		<path fill="none" d="M36.2,15.7h1.9l1-0.9l-3.8-3.8l-1,0.9v1.9l-1.9,1.9l1.9,1.9L36.2,15.7z"/>
		<path fill="#FFFFFF" d="M24.1,36.4h1v2.9h-1V36.4z"/>
		<path fill="#FFFFFF" d="M34.5,27h2.8v1h-2.8V27z"/>
		<path fill="#FFFFFF" d="M33,17.6l0.7,0.7l-2,2l-0.7-0.7L33,17.6z"/>
		<path fill="#FFFFFF" d="M17.7,33l0.7,0.7l-2,2L15.7,35L17.7,33z"/>
		<path fill="#FFFFFF" d="M16.3,18.2l2,2l-0.7,0.7l-2-2L16.3,18.2z"/>
		<path fill="#FFFFFF" d="M31.6,33.6l2,2l-0.7,0.7l-2-2L31.6,33.6z"/>
	</g>
	<polyline fill="#010101" points="16.7,27.6 25,27.6 25,26.3 16.7,26.3 	"/>
</g>
</svg>
