<?xml version="1.0" encoding="utf-8"?>
<!-- Generator: Adobe Illustrator 16.0.2, SVG Export Plug-In . SVG Version: 6.00 Build 0)  -->
<!DOCTYPE svg PUBLIC "-//W3C//DTD SVG 1.1//EN" "http://www.w3.org/Graphics/SVG/1.1/DTD/svg11.dtd">
<svg version="1.1" id="Layer_1" xmlns="http://www.w3.org/2000/svg" xmlns:xlink="http://www.w3.org/1999/xlink" x="0px" y="0px"
	 width="50px" height="50px" viewBox="282.5 371 50 50" enable-background="new 282.5 371 50 50" xml:space="preserve">
<path fill="#E5CF05" d="M295.511,378.643h21.637c1.034,0,1.881,0.847,1.881,1.882v30.104c0,1.034-0.847,1.881-1.881,1.881h-21.637
	c-1.035,0-1.882-0.847-1.882-1.881v-30.104C293.629,379.49,294.476,378.643,295.511,378.643z"/>
<path fill="#FFED03" d="M295.511,411.851c-0.658,0-1.223-0.564-1.223-1.223v-30.104c0-0.658,0.564-1.223,1.223-1.223h21.637
	c0.658,0,1.223,0.564,1.223,1.223v30.104c0,0.658-0.564,1.223-1.223,1.223H295.511z"/>
</svg>
