<?xml version="1.0" encoding="utf-8"?>
<!-- Generator: Adobe Illustrator 16.0.2, SVG Export Plug-In . SVG Version: 6.00 Build 0)  -->
<!DOCTYPE svg PUBLIC "-//W3C//DTD SVG 1.1//EN" "http://www.w3.org/Graphics/SVG/1.1/DTD/svg11.dtd">
<svg version="1.1" id="Layer_1" xmlns="http://www.w3.org/2000/svg" xmlns:xlink="http://www.w3.org/1999/xlink" x="0px" y="0px"
	 width="50px" height="50px" viewBox="279 229.5 50 50" enable-background="new 279 229.5 50 50" xml:space="preserve">
<path fill="#72BF44" d="M287.985,238.475h33.866v33.866h-33.866V238.475z"/>
<path fill="#72BF44" d="M311.503,269.049c0-11.194-9.031-20.226-20.226-20.226c-0.94,0,0,20.696,0,20.696
	S311.503,270.177,311.503,269.049z"/>
<path fill="#FFFFFF" d="M321.851,270.46h-31.044c-0.564,0-0.94-0.376-0.94-0.94s0.376-0.941,0.94-0.941h31.044"/>
<path fill="#FFFFFF" d="M291.748,238.569v30.95c0,0.564-0.377,0.94-0.941,0.94s-0.94-0.376-0.94-0.94v-30.95"/>
<path fill="#FFFFFF" d="M312.444,269.519c0-11.947-9.689-21.637-21.637-21.637v1.881c10.912,0,19.756,8.843,19.756,19.756
	C311.785,269.519,311.597,269.519,312.444,269.519z"/>
<path d="M306.423,246.094c4.892,0,8.843,3.951,8.843,8.843c0,4.893-3.951,8.843-8.843,8.843s-8.843-3.95-8.843-8.843
	C297.487,250.046,301.437,246.094,306.423,246.094z"/>
<path fill="#FFFFFF" d="M306.423,246.754c4.516,0,8.278,3.669,8.278,8.278c0,4.516-3.669,8.278-8.278,8.278
	c-4.516,0-8.278-3.669-8.278-8.278C298.145,250.516,301.907,246.754,306.423,246.754z"/>
<g>
	<g>
		<defs>
			<circle id="SVGID_1_" cx="306.423" cy="255.032" r="8.278"/>
		</defs>
		<clipPath id="SVGID_2_">
			<use xlink:href="#SVGID_1_"  overflow="visible"/>
		</clipPath>
		<path clip-path="url(#SVGID_2_)" d="M304.636,248.917c0,0,0.94,2.164,0.847,2.446c-0.282,0.188-1.882,1.787-2.353,2.352
			c-0.658-0.188-2.445-0.847-2.54-1.035c-0.094-0.188,0.471-2.634,0.847-2.916C301.907,249.481,304.354,248.541,304.636,248.917z
			 M309.057,252.303c0,0,1.6-1.411,2.07-1.316c0.47,0.094,1.881,1.223,2.163,2.069c0.282,0.94-0.471,2.916-0.847,3.104
			c-0.376,0.188-2.445-0.188-2.728-0.377C309.716,255.502,309.716,254.468,309.057,252.303z M307.081,258.23
			c0,0-2.728-0.658-3.198-0.94c-0.376,0.188-1.505,1.787-1.693,2.258c0.188,0.47,1.411,1.976,2.258,2.258
			c0.847,0.188,2.822-0.659,2.916-0.847C307.552,260.582,307.364,258.795,307.081,258.23z M310.281,248.352l1.129-1.129
			l-1.693-1.693l-3.293-0.564c0,0-0.094,1.693,0,2.164C307.364,247.13,308.869,247.788,310.281,248.352z M310.281,261.617
			c0,0-0.188,1.035,0.564,1.693c1.599-0.094,3.856-1.129,3.856-1.129v-2.729c0,0-0.564-0.658-1.693-0.564
			C312.537,259.453,312.256,260.394,310.281,261.617z M299.274,254.468c0,0-0.564-0.377-1.693-0.564
			c-1.129-0.188-1.129,2.728-1.129,2.728l1.129,3.293c0,0,1.882-1.035,2.164-1.693C299.18,257.384,299.18,255.596,299.274,254.468z"
			/>
	</g>
</g>
</svg>
