<?xml version="1.0" encoding="utf-8"?>
<!-- Generator: Adobe Illustrator 16.0.2, SVG Export Plug-In . SVG Version: 6.00 Build 0)  -->
<!DOCTYPE svg PUBLIC "-//W3C//DTD SVG 1.1//EN" "http://www.w3.org/Graphics/SVG/1.1/DTD/svg11.dtd">
<svg version="1.1" id="Layer_1" xmlns="http://www.w3.org/2000/svg" xmlns:xlink="http://www.w3.org/1999/xlink" x="0px" y="0px"
	 width="50px" height="50px" viewBox="395 361 50 50" enable-background="new 395 361 50 50" xml:space="preserve">
<path d="M420.573,371.945c8.843,0,15.992,7.149,15.992,15.992s-7.149,15.993-15.992,15.993s-15.992-7.15-15.992-15.993
	C404.392,379.094,411.541,371.945,420.573,371.945z"/>
<path fill="#FFFFFF" d="M420.573,373.169c8.185,0,14.77,6.585,14.77,14.769c0,8.185-6.585,14.77-14.77,14.77
	s-14.77-6.585-14.77-14.77C405.615,379.754,412.2,373.169,420.573,373.169z"/>
<g>
	<g>
		<defs>
			<circle id="SVGID_1_" cx="420.573" cy="388.126" r="14.958"/>
		</defs>
		<clipPath id="SVGID_2_">
			<use xlink:href="#SVGID_1_"  overflow="visible"/>
		</clipPath>
		<path clip-path="url(#SVGID_2_)" d="M417.374,377.025c0,0,1.693,3.951,1.505,4.422c-0.47,0.376-3.387,3.198-4.233,4.232
			c-1.223-0.376-4.421-1.505-4.609-1.881s0.847-4.798,1.505-5.269C412.388,378.06,416.81,376.367,417.374,377.025z M425.37,383.14
			c0,0,2.916-2.54,3.763-2.353c0.847,0.188,3.387,2.258,3.951,3.764c0.471,1.692-0.847,5.268-1.505,5.644
			c-0.659,0.377-4.422-0.376-4.892-0.658C426.499,388.972,426.499,387.091,425.37,383.14z M421.795,393.864
			c0,0-4.892-1.223-5.832-1.693c-0.658,0.377-2.729,3.199-3.104,4.046c0.376,0.846,2.54,3.574,4.045,4.045
			c1.506,0.376,5.08-1.224,5.269-1.506C422.642,398.191,422.266,394.899,421.795,393.864z M427.534,375.99l2.069-2.069l-3.104-3.104
			l-5.927-1.034c0,0-0.188,3.104,0,3.95C422.266,373.827,424.994,374.956,427.534,375.99z M427.534,399.979
			c0,0-0.377,1.881,1.034,3.104c2.916-0.188,6.962-2.07,6.962-2.07v-4.892c0,0-1.035-1.223-3.104-1.035
			C431.673,396.122,431.109,397.815,427.534,399.979z M407.59,387.091c0,0-1.034-0.658-3.104-1.034
			c-2.069-0.377-2.069,4.892-2.069,4.892l2.069,5.927c0,0,3.387-1.882,3.951-3.104C407.496,392.359,407.496,389.161,407.59,387.091z
			"/>
	</g>
</g>
</svg>
