<?xml version="1.0" encoding="utf-8"?>
<!-- Generator: Adobe Illustrator 16.0.2, SVG Export Plug-In . SVG Version: 6.00 Build 0)  -->
<!DOCTYPE svg PUBLIC "-//W3C//DTD SVG 1.1//EN" "http://www.w3.org/Graphics/SVG/1.1/DTD/svg11.dtd">
<svg version="1.1" id="Layer_1" xmlns="http://www.w3.org/2000/svg" xmlns:xlink="http://www.w3.org/1999/xlink" x="0px" y="0px"
	 width="50px" height="50px" viewBox="281 371 50 50" enable-background="new 281 371 50 50" xml:space="preserve">
<path fill="#E20124" d="M301.249,410.346l5.174-10.442l3.011,4.327c2.352-0.376,5.738-1.223,6.208-3.292
	c0.753-3.764-5.174-9.972-5.174-9.972s10.913,5.926,10.349,10.912c-0.471,4.045-4.986,6.114-8.091,7.149l2.822,4.14L301.249,410.346
	z"/>
<path fill="#72BF44" d="M312.256,382.219l-5.457,10.254l-2.822-4.422c-2.352,0.282-5.738,1.035-6.303,3.199
	c-0.847,3.763,4.986,10.159,4.986,10.159s-10.725-6.209-10.065-11.194c0.564-4.045,5.174-6.021,8.277-6.867l-2.728-4.14
	L312.256,382.219z"/>
</svg>
